<svg width="75" height="40" viewBox="0 0 75 40" fill="none" xmlns="http://www.w3.org/2000/svg">
<path d="M20.8696 0.434783C21.9203 0.144928 22.6449 0 23.0435 0C23.6232 0 23.913 0.235507 23.913 0.706522C23.913 1.39493 23.4601 1.95652 22.5543 2.39131C21.6848 2.78986 20.2174 3.15217 18.1522 3.47826C16.1957 3.73189 14.9819 4.00362 14.5109 4.29348C14.1848 4.47464 13.8225 4.92754 13.4239 5.65217C13.0616 6.34058 12.3551 7.9529 11.3043 10.4891C8.84058 16.3587 7.6087 19.5652 7.6087 20.1087C7.6087 20.1812 7.64493 20.3261 7.71739 20.5435C7.89855 20.9058 7.80797 21.2681 7.44565 21.6304C7.1558 21.9928 6.81159 22.7174 6.41304 23.8043C6.08696 24.8551 5.65217 25.8514 5.1087 26.7935C4.63768 27.7355 4.40217 28.2971 4.40217 28.4783C4.40217 28.6232 4.13043 29.7464 3.58696 31.8478C3.15217 33.442 2.93478 34.529 2.93478 35.1087C2.93478 35.3261 2.9529 35.4891 2.98913 35.5978C3.09783 35.8877 3.15217 36.2681 3.15217 36.7391C3.15217 38.0435 2.9529 38.9674 2.55435 39.5109C2.30072 39.837 1.92029 40 1.41304 40C0.905797 40 0.543478 39.8551 0.326087 39.5652C0.108696 39.2754 0 38.75 0 37.9891C0 37.1196 0.126812 36.1775 0.380435 35.163C1.21377 31.5036 1.97464 28.9855 2.66304 27.6087C2.88043 27.1739 3.07971 26.558 3.26087 25.7609C3.47826 24.9275 3.71377 24.2935 3.96739 23.8587C4.14855 23.4964 4.38406 22.7717 4.67391 21.6848C5 20.5978 5.23551 19.9094 5.38043 19.6196C5.59783 19.2572 5.85145 18.587 6.1413 17.6087C6.46739 16.558 7.13768 14.8188 8.15217 12.3913C9.2029 9.96377 9.98188 8.2971 10.4891 7.39131C11.1051 6.23189 11.413 5.50725 11.413 5.21739C11.413 4.67391 10.5072 4.40217 8.69565 4.40217C7.64493 4.40217 6.77536 4.42029 6.08696 4.45652C5.25362 4.49275 4.29348 4.51087 3.20652 4.51087C2.1558 4.51087 1.50362 4.45652 1.25 4.34783C1.03261 4.2029 0.923913 3.89493 0.923913 3.42391C0.923913 2.8442 1.39493 2.55435 2.33696 2.55435C2.66304 2.55435 3.17029 2.42754 3.8587 2.17391C4.32971 1.99275 4.83696 1.90218 5.38043 1.90218C5.77899 1.90218 6.10507 1.92029 6.3587 1.95652C6.61232 1.99275 7.08333 2.01087 7.77174 2.01087C9.6558 2.01087 11.9565 1.84783 14.6739 1.52174C17.4275 1.19565 19.4928 0.833333 20.8696 0.434783Z" fill="white"/>
<path d="M18.9776 19.7283C20.3182 17.7355 21.224 16.5399 21.695 16.1413C22.166 15.7428 22.4558 15.5435 22.5645 15.5435C22.7457 15.5435 23.2167 15.8877 23.9776 16.5761C25.2457 17.7355 26.2783 18.3152 27.0754 18.3152C27.4377 18.3152 27.6189 18.4601 27.6189 18.75C27.6189 19.0761 27.4377 19.4022 27.0754 19.7283C26.7131 20.0906 26.2783 20.2717 25.7711 20.2717C25.1913 20.2717 24.5029 19.9819 23.7058 19.4022C22.9812 18.8587 22.4558 18.587 22.1298 18.587C21.8399 18.587 21.0247 19.8188 19.6841 22.2826C18.4522 24.5652 17.2928 27.0471 16.2058 29.7283C15.1189 32.3732 14.4848 34.3297 14.3037 35.5978C14.2312 36.1413 14.0319 36.5761 13.7058 36.9022C13.416 37.2283 13.0899 37.3913 12.7276 37.3913C12.329 37.3913 12.0029 37.192 11.7493 36.7935C11.5682 36.5036 11.4776 36.2862 11.4776 36.1413C11.4776 36.1051 11.6044 35.6341 11.858 34.7283C12.1479 33.8587 12.4558 32.5181 12.7819 30.7065C13.1442 28.8949 13.3616 27.4094 13.4341 26.25C13.4703 26.0326 13.4885 25.7428 13.4885 25.3804C13.4885 24.837 13.3798 24.5652 13.1624 24.5652C13.0174 24.5652 12.5102 24.9638 11.6406 25.7609C10.8798 26.4855 10.3544 26.8478 10.0645 26.8478C9.95584 26.8478 9.86526 26.8297 9.7928 26.7935C9.35802 26.6123 9.14062 26.2681 9.14062 25.7609C9.14062 25.3986 9.64787 24.6558 10.6624 23.5326C10.8798 23.3152 11.7131 22.4094 13.1624 20.8152C13.8145 20.0543 14.3761 19.6739 14.8471 19.6739C15.1732 19.6739 15.4631 19.837 15.7167 20.163C16.0066 20.4529 16.0971 20.8877 15.9884 21.4674C15.8798 22.3007 16.1153 22.7174 16.695 22.7174C16.8037 22.7174 17.5645 21.721 18.9776 19.7283Z" fill="white"/>
<path d="M34.5716 22.663C34.5716 22.6268 34.5897 22.5725 34.6259 22.5V22.3913C34.6259 22.2464 34.5535 22.1739 34.4085 22.1739C33.8651 22.1739 32.7056 23.0978 30.9303 24.9457C29.1911 26.7572 27.8868 28.4239 27.0172 29.9457C26.2564 31.3587 25.8759 32.192 25.8759 32.4457C25.8759 32.6268 25.9665 32.808 26.1477 32.9891C26.4013 33.2428 26.6549 33.3696 26.9085 33.3696C27.3071 33.3696 27.9774 33.0254 28.9194 32.337C30.1151 31.5399 30.8397 31.0688 31.0933 30.9239C31.6368 30.6341 31.981 30.1812 32.1259 29.5652C32.3433 28.8406 32.6694 28.0435 33.1042 27.1739C33.539 26.3768 34.0281 24.8732 34.5716 22.663ZM35.3868 19.1848C35.7491 18.9674 36.1839 18.8587 36.6911 18.8587C37.3433 18.8587 37.76 19.0217 37.9411 19.3478C38.1223 19.7101 38.2129 20.1087 38.2129 20.5435C38.2129 21.413 37.9774 22.2283 37.5064 22.9891C36.9629 23.9312 36.4194 25.2355 35.8759 26.9022C35.2238 28.8587 34.8977 30.471 34.8977 31.7391C34.8977 33.1159 35.0607 33.9674 35.3868 34.2935C35.568 34.4746 35.7854 34.5652 36.039 34.5652C36.5462 34.5652 37.2709 34.1123 38.2129 33.2065C38.8288 32.6268 39.2636 32.337 39.5172 32.337C39.6622 32.337 39.9339 32.5 40.3325 32.8261C40.5861 33.0797 40.7129 33.2971 40.7129 33.4783C40.7129 33.8043 40.3143 34.3116 39.5172 35C38.1042 36.1957 36.9629 36.7935 36.0933 36.7935C35.6948 36.7935 35.2962 36.6848 34.8977 36.4674C34.4629 36.25 34.0281 35.9058 33.5933 35.4348C33.1948 34.9275 32.9593 34.4746 32.8868 34.0761C32.7419 33.4239 32.6332 33.0254 32.5607 32.8804C32.4883 32.7355 32.3433 32.663 32.1259 32.663C31.7636 32.663 31.2745 33.0072 30.6585 33.6957C29.9701 34.4565 29.1549 35.0543 28.2129 35.4891C27.452 35.8514 26.7817 36.0326 26.202 36.0326C25.5861 36.0326 24.9701 35.7609 24.3542 35.2174C23.9194 34.7826 23.702 34.058 23.702 33.0435C23.702 31.8116 23.8832 30.8696 24.2455 30.2174C24.6078 29.5652 25.6404 28.2428 27.3433 26.25C29.5535 23.6413 31.3288 21.8841 32.6694 20.9783C34.01 20 34.9158 19.4022 35.3868 19.1848Z" fill="white"/>
<path d="M49.7885 17.4457C50.1146 17.1196 50.4226 16.9565 50.7125 16.9565C50.9661 16.9565 51.2016 17.0652 51.419 17.2826C51.6001 17.4638 51.7632 18.0978 51.9081 19.1848C52.1255 20.9964 52.4516 21.9746 52.8864 22.1196L52.9951 22.1739C53.0313 22.1739 53.0675 22.1739 53.1038 22.1739C53.9009 22.1739 55.0965 21.4855 56.6907 20.1087C58.0675 18.9493 59.0096 18.3696 59.5168 18.3696C59.7342 18.3696 59.8972 18.4058 60.0059 18.4783C60.2958 18.6594 60.4407 18.8949 60.4407 19.1848C60.4407 19.9094 59.6255 20.8333 57.9951 21.9565C56.9806 22.6087 56.2197 23.1884 55.7125 23.6957C55.0603 24.2754 54.2994 24.6196 53.4299 24.7283C52.5603 24.837 51.9443 25.1812 51.582 25.7609C51.1835 26.2681 50.9842 26.8116 50.9842 27.3913C50.9842 27.8261 50.8212 28.4058 50.4951 29.1304C50.2414 29.7464 50.0059 30.4891 49.7885 31.3587C49.6074 32.192 49.3719 32.8442 49.082 33.3152C48.8284 33.75 48.3936 34.221 47.7777 34.7283C46.9081 35.4167 46.0929 35.7609 45.332 35.7609C44.7885 35.7609 44.227 35.5797 43.6472 35.2174C42.9951 34.8188 42.5241 34.4203 42.2342 34.0217C41.9443 33.6232 41.6726 32.8986 41.419 31.8478C41.1654 30.7609 41.0023 30.1087 40.9299 29.8913C40.64 29.1304 40.4951 28.2428 40.4951 27.2283C40.4951 25.4529 40.9842 23.8225 41.9625 22.337C42.7233 21.1775 43.3574 20.5978 43.8646 20.5978C43.9733 20.5978 44.0639 20.6341 44.1364 20.7065C44.1726 20.7428 44.1907 20.8514 44.1907 21.0326C44.1907 21.5399 44.1001 22.3007 43.919 23.3152C43.7378 24.3297 43.5567 25.0362 43.3755 25.4348C43.2306 25.7609 43.1581 26.1413 43.1581 26.5761C43.1581 26.9022 43.2125 27.5543 43.3212 28.5326C43.5748 30.5254 44.0277 31.8478 44.6798 32.5C44.8972 32.7174 45.1146 32.8261 45.332 32.8261C45.7668 32.8261 46.3646 32.2645 47.1255 31.1413C49.1183 28.0616 50.1146 25.3623 50.1146 23.0435C50.1146 22.2464 50.0059 21.4312 49.7885 20.5978C49.4987 19.692 49.3538 18.9855 49.3538 18.4783C49.3538 18.0797 49.4987 17.7355 49.7885 17.4457Z" fill="white"/>
<path d="M60.8764 22.1196C60.7677 21.9746 60.659 21.9022 60.5503 21.9022C60.2966 21.9022 59.9524 22.2645 59.5177 22.9891C58.6843 24.4384 58.2677 25.5978 58.2677 26.4674C58.2677 26.8297 58.3764 27.0109 58.5937 27.0109H58.7568C59.0829 26.8659 59.5177 26.1957 60.0611 25C60.6408 23.8043 60.9307 22.9348 60.9307 22.3913C60.9307 22.2464 60.9126 22.1558 60.8764 22.1196ZM60.1698 18.9674C60.5322 18.7862 60.8039 18.6957 60.985 18.6957C61.1662 18.6957 61.4379 18.7862 61.8003 18.9674C62.4887 19.2935 62.8329 19.9457 62.8329 20.9239C62.8329 21.4674 62.7785 22.192 62.6698 23.0978C62.5611 24.3297 62.4524 25.163 62.3437 25.5978C62.235 25.9964 61.9452 26.5761 61.4742 27.337C60.7495 28.5326 59.9162 29.7101 58.9742 30.8696C58.0684 31.9565 57.6155 32.6812 57.6155 33.0435C57.6155 33.5507 57.8329 33.8043 58.2677 33.8043C58.5937 33.8043 59.4814 33.3514 60.9307 32.4457C62.4162 31.5036 63.5213 30.6884 64.2459 30C65.0792 29.2029 65.6952 28.8043 66.0937 28.8043C66.2749 28.8043 66.4017 28.8406 66.4742 28.913C66.6191 29.0217 66.6916 29.1848 66.6916 29.4022C66.6916 29.9819 66.3655 30.5072 65.7133 30.9783C65.0974 31.413 64.1734 32.2645 62.9416 33.5326C61.8908 34.5833 61.0575 35.2899 60.4416 35.6522C59.8256 35.9783 59.101 36.1413 58.2677 36.1413C57.6155 36.1413 56.9633 35.9783 56.3111 35.6522C55.6952 35.2899 55.3148 34.8732 55.1698 34.4022C55.0249 34.0036 54.6626 33.8225 54.0829 33.8587C53.5394 33.8949 53.1952 33.7319 53.0503 33.3696C53.014 33.2971 52.9959 33.2065 52.9959 33.0978C52.9959 32.8804 53.3401 32.3732 54.0285 31.5761C54.7894 30.7428 55.1698 30.1812 55.1698 29.8913C55.1698 29.529 55.351 28.8043 55.7133 27.7174C56.0756 26.6304 56.3655 25.5435 56.5829 24.4565C56.764 23.3696 57.2169 22.2645 57.9416 21.1413C58.7024 20.0181 59.4452 19.2935 60.1698 18.9674Z" fill="white"/>
<path d="M71.5281 10.3261C71.7817 9.85507 71.7998 9.51087 71.5824 9.29348C71.3288 9.03986 71.0571 9.18478 70.7672 9.72826C70.0064 11.25 69.6259 12.4457 69.6259 13.3152C69.6259 13.7138 69.7527 13.913 70.0064 13.913C70.1875 13.913 70.423 13.6051 70.7129 12.9891C71.039 12.337 71.202 11.8478 71.202 11.5217C71.202 11.2319 71.3107 10.8333 71.5281 10.3261ZM71.3651 4.94565C72.0172 4.43841 72.4701 4.18478 72.7237 4.18478C72.9411 4.18478 73.1948 4.31159 73.4846 4.56522C73.8469 4.81884 74.0643 5.74275 74.1368 7.33696C74.173 7.69928 74.1911 8.17029 74.1911 8.75C74.1911 9.58333 74.0462 10.4529 73.7564 11.3587C73.0317 13.6775 71.6549 16.3949 69.6259 19.5109C68.2853 21.5399 67.5064 22.9348 67.289 23.6957C66.7093 26.0145 66.4194 28.442 66.4194 30.9783C66.4194 32.4275 66.5462 33.1522 66.7998 33.1522C67.0535 33.1522 67.9411 32.4638 69.4629 31.087C71.0209 29.7101 72.0535 28.6594 72.5607 27.9348C72.9955 27.3188 73.4303 26.9384 73.8651 26.7935C74.2274 26.6848 74.4448 26.6667 74.5172 26.7391C74.5897 26.7754 74.6803 26.9928 74.789 27.3913C74.8252 27.4638 74.8433 27.5543 74.8433 27.663C74.8433 27.9891 74.4085 28.6413 73.539 29.6196C72.5245 30.7065 71.5824 31.8659 70.7129 33.0978C69.8795 34.2572 69.1006 35.0725 68.3759 35.5435C67.6875 36.0145 66.8904 36.25 65.9846 36.25H65.6585C65.4049 36.25 65.0788 35.9964 64.6803 35.4891C64.3904 35.0543 64.2455 34.1486 64.2455 32.7717C64.2455 31.6123 64.2636 30.5978 64.2998 29.7283C64.4085 26.25 64.5897 23.8768 64.8433 22.6087C65.8216 18.2971 66.6368 15.5616 67.289 14.4022C67.6513 13.8225 67.8687 13.0797 67.9411 12.1739C68.0136 11.4855 68.2853 10.4891 68.7564 9.18478C69.2274 7.88043 69.6259 6.93841 69.952 6.3587C70.2056 5.96015 70.6767 5.48913 71.3651 4.94565Z" fill="white"/>
</svg>
